<?xml version="1.0" encoding="UTF-8" standalone="no"?><!DOCTYPE svg PUBLIC "-//W3C//DTD SVG 1.1//EN" "http://www.w3.org/Graphics/SVG/1.1/DTD/svg11.dtd"><svg width="100%" height="100%" viewBox="0 0 180 180" version="1.1" xmlns="http://www.w3.org/2000/svg" xmlns:xlink="http://www.w3.org/1999/xlink" xml:space="preserve" xmlns:serif="http://www.serif.com/" style="fill-rule:evenodd;clip-rule:evenodd;stroke-linejoin:round;stroke-miterlimit:2;"><g><rect x="0" y="-0" width="180" height="180" style="fill:#fff;"/><path d="M113.996,111.454c-3.862,-7.949 1.991,-38.742 -3.524,-40.112c-0.673,-0.167 -55.697,-0.098 -56.443,-0.005c-2.559,0.32 -20.219,14.89 -20.273,19.902c-0.01,0.919 -0.122,11.346 -1.845,11.338c-3.034,-0.014 -0.478,-12.456 -3.395,-15.387c-11.052,-11.103 -16.74,-13.435 -16.76,-19.694c-0.077,-24.225 -1.325,-30.129 5.317,-30.244c9.895,-0.171 10.257,0.682 11.733,-0.947c1.137,-1.255 -0.639,-18.584 4.481,-14.562c2.078,1.633 -1.376,15.041 4.485,15.385c0.348,0.02 80.55,0.006 81.438,0.01c0.551,0.003 6.649,0.034 6.749,-1.349c0.065,-0.898 -0.327,-0.86 0.089,-11.249c0.221,-5.513 3.45,-3.002 3.519,-1.432c0.261,5.927 -0.218,5.859 0.16,11.782c0.412,6.458 28.554,-3.511 29.544,7.447c0.713,7.89 7.524,4.073 9.139,11.767c0.135,0.643 1.192,16.876 -1.079,20.355c-3.285,5.032 -8.014,2.148 -8.028,9.321c-0.04,21.377 1.238,27.515 -3.167,27.574c-21.125,0.282 -20.989,-0.326 -42.142,0.1Z" style="fill:#783089;"/><path d="M172.145,135.571c-0.172,6.077 1.949,8.892 -4.101,8.914c-12.78,0.046 -157.134,0.57 -159.748,-0.233c-2.928,-0.9 -2.764,-28.509 -0.105,-29.483c0.909,-0.333 0.951,-0.308 90.303,-0.305c5.795,0 71.813,0.003 72.439,0.501c1.789,1.424 1.209,11.872 1.212,20.606Z" style="fill:#783089;"/><path d="M95.535,127.676c59.786,0 61.427,-0.382 61.339,2.038c-0.093,2.55 -14.472,1.711 -15.466,1.711c-118.033,-0 -118.382,0.124 -119.134,-0.878c-3.517,-4.694 2.74,-2.871 73.261,-2.871Z" style="fill:#ebebeb;"/><path d="M135.489,85.92c5.906,0.334 10.515,-0.835 9.33,12.694c-0.612,6.982 -17.432,9.107 -17.705,-1.522c-0.219,-8.484 -0.204,-10.695 8.376,-11.172Z" style="fill:#fbfbfb;"/><path d="M140.279,68.022c-14.612,7.531 -15.9,-18.133 -1.796,-13.954c0.622,0.184 4.345,1.288 5.305,6.129c0.725,3.657 -3.021,7.343 -3.51,7.825Z" style="fill:#fbfbfb;"/></g></svg>